<svg height='100px' width='100px'  fill="#000000" xmlns="http://www.w3.org/2000/svg" xmlns:xlink="http://www.w3.org/1999/xlink" version="1.1" x="0px" y="0px" viewBox="0 0 100 100" enable-background="new 0 0 100 100" xml:space="preserve"><g><path d="M50.145,39.273c-5.882,0-10.65,4.769-10.65,10.65s4.769,10.65,10.65,10.65c5.882,0,10.65-4.769,10.65-10.65   S56.027,39.273,50.145,39.273z M50.145,53.517c-1.985,0-3.594-1.608-3.594-3.593c0-1.985,1.609-3.594,3.594-3.594   c1.984,0,3.593,1.609,3.593,3.594C53.738,51.908,52.129,53.517,50.145,53.517z"></path><path d="M95,10c0-2.761-2.238-5-5-5H10c-2.761,0-5,2.239-5,5v80c0,2.762,2.239,5,5,5h80c2.762,0,5-2.238,5-5V10z M13.333,89.49   c-1.381,0-2.5-1.119-2.5-2.5s1.119-2.5,2.5-2.5s2.5,1.119,2.5,2.5S14.714,89.49,13.333,89.49z M13.333,14.99   c-1.381,0-2.5-1.119-2.5-2.5s1.119-2.5,2.5-2.5s2.5,1.119,2.5,2.5S14.714,14.99,13.333,14.99z M50.145,64.98   c-11.153,0-20.885-6.057-26.106-15.057c5.221-9,14.953-15.058,26.106-15.058c11.153,0,20.885,6.058,26.106,15.058   C71.03,58.924,61.298,64.98,50.145,64.98z M87.833,89.49c-1.381,0-2.5-1.119-2.5-2.5s1.119-2.5,2.5-2.5s2.5,1.119,2.5,2.5   S89.214,89.49,87.833,89.49z M87.833,14.99c-1.381,0-2.5-1.119-2.5-2.5s1.119-2.5,2.5-2.5s2.5,1.119,2.5,2.5   S89.214,14.99,87.833,14.99z"></path></g></svg>