<?xml version="1.0" encoding="UTF-8" standalone="no"?><!DOCTYPE svg PUBLIC "-//W3C//DTD SVG 1.1//EN" "http://www.w3.org/Graphics/SVG/1.1/DTD/svg11.dtd"><!-- Generated by graphviz version 2.40.1 (20161225.0304)
 --><!-- Title: %0 Pages: 1 --><svg xmlns="http://www.w3.org/2000/svg" xmlns:xlink="http://www.w3.org/1999/xlink" width="162pt" height="115pt" viewBox="0.00 0.00 162.35 114.73">
<g id="graph0" class="graph" transform="scale(1 1) rotate(0) translate(4 110.7338)">
<title>%0</title>
<polygon fill="#ffffff" stroke="transparent" points="-4,4 -4,-110.7338 158.3478,-110.7338 158.3478,4 -4,4"/>
<!-- 0 -->
<g id="node1" class="node">
<title>0</title>
<ellipse fill="none" stroke="#000000" cx="22" cy="-48.9338" rx="18" ry="18"/>
<ellipse fill="none" stroke="#000000" cx="22" cy="-48.9338" rx="22" ry="22"/>
<text text-anchor="middle" x="22" y="-44.7338" font-family="Helvetica,Arial,sans-serif" font-size="14.00" fill="#000000">0</text>
</g>
<!-- 1 -->
<g id="node2" class="node">
<title>1</title>
<ellipse fill="none" stroke="#000000" cx="132.3478" cy="-48.9338" rx="18" ry="18"/>
<ellipse fill="none" stroke="#000000" cx="132.3478" cy="-48.9338" rx="22" ry="22"/>
<text text-anchor="middle" x="132.3478" y="-44.7338" font-family="Helvetica,Arial,sans-serif" font-size="14.00" fill="#000000">1</text>
</g>
<!-- 0&#45;&gt;1 -->
<g id="edge1" class="edge">
<title>0-&gt;1</title>
<path fill="none" stroke="#000000" d="M35.5459,-66.9013C42.5007,-74.6252 51.681,-82.8137 62,-86.9338 74.5263,-91.9353 79.8215,-91.9353 92.3478,-86.9338 99.4421,-84.1013 105.9982,-79.3457 111.6629,-74.1402"/>
<polygon fill="#000000" stroke="#000000" points="114.2722,-76.479 118.8019,-66.9013 109.2881,-71.5637 114.2722,-76.479"/>
<text text-anchor="middle" x="77.1739" y="-94.1338" font-family="Helvetica,Arial,sans-serif" font-size="14.00" fill="#000000">0x00</text>
</g>
<!-- 0&#45;&gt;1 -->
<g id="edge2" class="edge">
<title>0-&gt;1</title>
<path fill="none" stroke="#000000" d="M44.0653,-48.9338C60.1537,-48.9338 82.2021,-48.9338 100.2395,-48.9338"/>
<polygon fill="#000000" stroke="#000000" points="100.3208,-52.4339 110.3207,-48.9338 100.3207,-45.4339 100.3208,-52.4339"/>
<text text-anchor="middle" x="77.1739" y="-53.1338" font-family="Helvetica,Arial,sans-serif" font-size="14.00" fill="#000000">0x01</text>
</g>
<!-- 0&#45;&gt;1 -->
<g id="edge3" class="edge">
<title>0-&gt;1</title>
<path fill="none" stroke="#000000" d="M40.79,-36.8062C47.251,-33.2893 54.7008,-29.9182 62,-28.1338 75.1021,-24.9309 79.2457,-24.9309 92.3478,-28.1338 96.3395,-29.1097 100.3763,-30.56 104.2718,-32.2493"/>
<polygon fill="#000000" stroke="#000000" points="103.0385,-35.5428 113.5578,-36.8062 106.1224,-29.2586 103.0385,-35.5428"/>
<text text-anchor="middle" x="77.1739" y="-32.1338" font-family="Helvetica,Arial,sans-serif" font-size="14.00" fill="#000000">0x02</text>
</g>
<!-- 0&#45;&gt;1 -->
<g id="edge4" class="edge">
<title>0-&gt;1</title>
<path fill="none" stroke="#000000" d="M33.5251,-29.6984C40.446,-20.0934 50.1995,-9.4174 62,-4.1338 74.3103,1.3779 80.0375,1.3779 92.3478,-4.1338 100.8294,-7.9314 108.2535,-14.5147 114.3285,-21.4838"/>
<polygon fill="#000000" stroke="#000000" points="111.8753,-24.0244 120.8227,-29.6984 117.3665,-19.6831 111.8753,-24.0244"/>
<text text-anchor="middle" x="77.1739" y="-8.1338" font-family="Helvetica,Arial,sans-serif" font-size="14.00" fill="#000000">0x03</text>
</g>
</g>
</svg>