<?xml version="1.0" encoding="UTF-8" standalone="no"?><!DOCTYPE svg PUBLIC "-//W3C//DTD SVG 1.1//EN" "http://www.w3.org/Graphics/SVG/1.1/DTD/svg11.dtd"><!-- Generated by graphviz version 2.40.1 (20161225.0304)
 --><!-- Title: %0 Pages: 1 --><svg xmlns="http://www.w3.org/2000/svg" xmlns:xlink="http://www.w3.org/1999/xlink" width="579pt" height="115pt" viewBox="0.00 0.00 578.82 114.89">
<g id="graph0" class="graph" transform="scale(1 1) rotate(0) translate(4 110.8927)">
<title>%0</title>
<polygon fill="#ffffff" stroke="transparent" points="-4,4 -4,-110.8927 574.8246,-110.8927 574.8246,4 -4,4"/>
<!-- 0 -->
<g id="node1" class="node">
<title>0</title>
<ellipse fill="none" stroke="#000000" cx="22" cy="-49.0927" rx="18" ry="18"/>
<ellipse fill="none" stroke="#000000" cx="22" cy="-49.0927" rx="22" ry="22"/>
<text text-anchor="middle" x="22" y="-44.8927" font-family="Helvetica,Arial,sans-serif" font-size="14.00" fill="#000000">0</text>
</g>
<!-- 1 -->
<g id="node3" class="node">
<title>1</title>
<ellipse fill="none" stroke="#000000" cx="128.3478" cy="-49.0927" rx="18" ry="18"/>
<text text-anchor="middle" x="128.3478" y="-44.8927" font-family="Helvetica,Arial,sans-serif" font-size="14.00" fill="#000000">1</text>
</g>
<!-- 0&#45;&gt;1 -->
<g id="edge1" class="edge">
<title>0-&gt;1</title>
<path fill="none" stroke="#000000" d="M35.5459,-67.0602C42.5007,-74.7841 51.681,-82.9726 62,-87.0927 74.5263,-92.0942 79.9575,-92.4222 92.3478,-87.0927 99.6942,-83.9328 106.2438,-78.4551 111.6764,-72.6265"/>
<polygon fill="#000000" stroke="#000000" points="114.6235,-74.5589 118.362,-64.6456 109.2574,-70.0638 114.6235,-74.5589"/>
<text text-anchor="middle" x="77.1739" y="-94.2927" font-family="Helvetica,Arial,sans-serif" font-size="14.00" fill="#000000">0x00</text>
</g>
<!-- 0&#45;&gt;1 -->
<g id="edge2" class="edge">
<title>0-&gt;1</title>
<path fill="none" stroke="#000000" d="M44.0353,-49.0927C60.2586,-49.0927 82.4527,-49.0927 99.9978,-49.0927"/>
<polygon fill="#000000" stroke="#000000" points="100.2264,-52.5928 110.2264,-49.0927 100.2264,-45.5928 100.2264,-52.5928"/>
<text text-anchor="middle" x="77.1739" y="-53.2927" font-family="Helvetica,Arial,sans-serif" font-size="14.00" fill="#000000">0x01</text>
</g>
<!-- 0&#45;&gt;1 -->
<g id="edge3" class="edge">
<title>0-&gt;1</title>
<path fill="none" stroke="#000000" d="M40.79,-36.9651C47.251,-33.4482 54.7008,-30.0771 62,-28.2927 75.1021,-25.0898 79.32,-24.7997 92.3478,-28.2927 96.5833,-29.4284 100.8358,-31.1963 104.8589,-33.2326"/>
<polygon fill="#000000" stroke="#000000" points="103.2955,-36.3705 113.7133,-38.2994 106.7722,-30.2949 103.2955,-36.3705"/>
<text text-anchor="middle" x="77.1739" y="-32.2927" font-family="Helvetica,Arial,sans-serif" font-size="14.00" fill="#000000">0x02</text>
</g>
<!-- 0&#45;&gt;1 -->
<g id="edge4" class="edge">
<title>0-&gt;1</title>
<path fill="none" stroke="#000000" d="M33.5251,-29.8573C40.446,-20.2523 50.1995,-9.5763 62,-4.2927 74.3103,1.219 80.1848,1.5368 92.3478,-4.2927 101.3343,-8.5998 108.7883,-16.3651 114.5377,-24.2346"/>
<polygon fill="#000000" stroke="#000000" points="111.668,-26.2404 120.0994,-32.6561 117.5091,-22.3828 111.668,-26.2404"/>
<text text-anchor="middle" x="77.1739" y="-9.2927" font-family="Helvetica,Arial,sans-serif" font-size="14.00" fill="#000000">0x03</text>
</g>
<!-- 4 -->
<g id="node2" class="node">
<title>4</title>
<ellipse fill="none" stroke="#000000" cx="548.8246" cy="-49.0927" rx="18" ry="18"/>
<ellipse fill="none" stroke="#000000" cx="548.8246" cy="-49.0927" rx="22" ry="22"/>
<text text-anchor="middle" x="548.8246" y="-44.8927" font-family="Helvetica,Arial,sans-serif" font-size="14.00" fill="#000000">4</text>
</g>
<!-- 2 -->
<g id="node4" class="node">
<title>2</title>
<ellipse fill="none" stroke="#000000" cx="264.122" cy="-49.0927" rx="18" ry="18"/>
<text text-anchor="middle" x="264.122" y="-44.8927" font-family="Helvetica,Arial,sans-serif" font-size="14.00" fill="#000000">2</text>
</g>
<!-- 1&#45;&gt;2 -->
<g id="edge5" class="edge">
<title>1-&gt;2</title>
<path fill="none" stroke="#000000" d="M146.3776,-49.0927C169.2016,-49.0927 208.7827,-49.0927 235.6932,-49.0927"/>
<polygon fill="#000000" stroke="#000000" points="236.0177,-52.5928 246.0177,-49.0927 236.0176,-45.5928 236.0177,-52.5928"/>
<text text-anchor="middle" x="196.2349" y="-53.2927" font-family="Helvetica,Arial,sans-serif" font-size="14.00" fill="#000000">PADDING</text>
</g>
<!-- 2&#45;&gt;4 -->
<g id="edge8" class="edge">
<title>2-&gt;4</title>
<path fill="none" stroke="#000000" d="M280.6422,-56.4153C286.6515,-58.7129 293.5765,-60.9471 300.122,-62.0927 391.4898,-78.0843 417.2104,-76.6064 508.8246,-62.0927 511.8987,-61.6057 515.0581,-60.9205 518.1891,-60.1165"/>
<polygon fill="#000000" stroke="#000000" points="519.3502,-63.4233 527.9545,-57.2414 517.3731,-56.7083 519.3502,-63.4233"/>
<text text-anchor="middle" x="404.4733" y="-77.2927" font-family="Helvetica,Arial,sans-serif" font-size="14.00" fill="#000000">&amp;'static LinkedList</text>
</g>
<!-- 3 -->
<g id="node5" class="node">
<title>3</title>
<ellipse fill="none" stroke="#000000" cx="404.4733" cy="-22.0927" rx="18" ry="18"/>
<text text-anchor="middle" x="404.4733" y="-17.8927" font-family="Helvetica,Arial,sans-serif" font-size="14.00" fill="#000000">3</text>
</g>
<!-- 2&#45;&gt;3 -->
<g id="edge6" class="edge">
<title>2-&gt;3</title>
<path fill="none" stroke="#000000" d="M281.8976,-45.6732C305.7057,-41.0931 348.2088,-32.9166 376.3747,-27.4982"/>
<polygon fill="#000000" stroke="#000000" points="377.24,-30.896 386.3987,-25.5698 375.9176,-24.022 377.24,-30.896"/>
<text text-anchor="middle" x="315.2959" y="-45.2927" font-family="Helvetica,Arial,sans-serif" font-size="14.00" fill="#000000">0x00</text>
</g>
<!-- 3&#45;&gt;4 -->
<g id="edge7" class="edge">
<title>3-&gt;4</title>
<path fill="none" stroke="#000000" d="M422.1736,-25.4035C445.6414,-29.793 487.4791,-37.6185 516.6199,-43.0691"/>
<polygon fill="#000000" stroke="#000000" points="516.2509,-46.5607 526.7239,-44.959 517.5379,-39.68 516.2509,-46.5607"/>
<text text-anchor="middle" x="493.6507" y="-45.2927" font-family="Helvetica,Arial,sans-serif" font-size="14.00" fill="#000000">0x00</text>
</g>
</g>
</svg>